<?xml version="1.0" encoding="UTF-8" standalone="no"?><!DOCTYPE svg PUBLIC "-//W3C//DTD SVG 1.1//EN" "http://www.w3.org/Graphics/SVG/1.1/DTD/svg11.dtd"><!-- Generated by graphviz version 2.40.1 (20161225.0304)
 --><!-- Title: G Pages: 1 --><svg xmlns="http://www.w3.org/2000/svg" xmlns:xlink="http://www.w3.org/1999/xlink" width="1048pt" height="244pt" viewBox="0.00 0.00 1047.76 244.00">
<g id="graph0" class="graph" transform="scale(1 1) rotate(0) translate(4 240)">
<title>G</title>
<polygon fill="#ffffff" stroke="transparent" points="-4,4 -4,-240 1043.7606,-240 1043.7606,4 -4,4"/>
<!-- aws_instance.App&#45;ec2 -->
<g id="node1" class="node">
<title>aws_instance.App-ec2</title>
<polygon fill="none" stroke="#000000" points="586.2942,-128 443.6298,-128 443.6298,-92 586.2942,-92 586.2942,-128"/>
<text text-anchor="middle" x="514.962" y="-105.8" font-family="sans-serif" font-size="14.00" fill="#000000">aws_instance.App-ec2</text>
</g>
<!-- aws_security_group.internet -->
<g id="node5" class="node">
<title>aws_security_group.internet</title>
<polygon fill="none" stroke="#000000" points="316.0314,-177 141.0242,-177 141.0242,-141 316.0314,-141 316.0314,-177"/>
<text text-anchor="middle" x="228.5278" y="-154.8" font-family="sans-serif" font-size="14.00" fill="#000000">aws_security_group.internet</text>
</g>
<!-- aws_instance.App&#45;ec2&#45;&gt;aws_security_group.internet -->
<g id="edge1" class="edge">
<title>aws_instance.App-ec2-&gt;aws_security_group.internet</title>
<path fill="none" stroke="#000000" d="M443.7908,-121.8627C415.896,-126.5389 383.6207,-131.9826 354.3606,-137 345.1946,-138.5717 335.6552,-140.2188 326.1106,-141.8745"/>
<polygon fill="#000000" stroke="#000000" points="325.431,-138.44 316.1777,-143.6001 326.6292,-145.3367 325.431,-138.44"/>
</g>
<!-- aws_subnet.public_subnet01 -->
<g id="node6" class="node">
<title>aws_subnet.public_subnet01</title>
<polygon fill="none" stroke="#000000" points="317.3894,-104 139.6662,-104 139.6662,-68 317.3894,-68 317.3894,-104"/>
<text text-anchor="middle" x="228.5278" y="-81.8" font-family="sans-serif" font-size="14.00" fill="#000000">aws_subnet.public_subnet01</text>
</g>
<!-- aws_instance.App&#45;ec2&#45;&gt;aws_subnet.public_subnet01 -->
<g id="edge2" class="edge">
<title>aws_instance.App-ec2-&gt;aws_subnet.public_subnet01</title>
<path fill="none" stroke="#000000" d="M443.79,-104.0366C408.6562,-101.0928 365.7006,-97.4936 327.4288,-94.2868"/>
<polygon fill="#000000" stroke="#000000" points="327.5471,-90.7845 317.2898,-93.4373 326.9626,-97.7601 327.5471,-90.7845"/>
</g>
<!-- aws_internet_gateway.igw01 -->
<g id="node2" class="node">
<title>aws_internet_gateway.igw01</title>
<polygon fill="none" stroke="#000000" points="318.1937,-41 138.8619,-41 138.8619,-5 318.1937,-5 318.1937,-41"/>
<text text-anchor="middle" x="228.5278" y="-18.8" font-family="sans-serif" font-size="14.00" fill="#000000">aws_internet_gateway.igw01</text>
</g>
<!-- aws_vpc.vpc01 -->
<g id="node7" class="node">
<title>aws_vpc.vpc01</title>
<polygon fill="none" stroke="#000000" points="102.543,-104 .152,-104 .152,-68 102.543,-68 102.543,-104"/>
<text text-anchor="middle" x="51.3475" y="-81.8" font-family="sans-serif" font-size="14.00" fill="#000000">aws_vpc.vpc01</text>
</g>
<!-- aws_internet_gateway.igw01&#45;&gt;aws_vpc.vpc01 -->
<g id="edge3" class="edge">
<title>aws_internet_gateway.igw01-&gt;aws_vpc.vpc01</title>
<path fill="none" stroke="#000000" d="M177.755,-41.0533C157.1819,-48.3685 133.2589,-56.8748 111.7954,-64.5065"/>
<polygon fill="#000000" stroke="#000000" points="110.3772,-61.2961 102.1277,-67.9441 112.7224,-67.8915 110.3772,-61.2961"/>
</g>
<!-- aws_route_table.rtb_Public -->
<g id="node3" class="node">
<title>aws_route_table.rtb_Public</title>
<polygon fill="none" stroke="#000000" points="599.5341,-36 430.3899,-36 430.3899,0 599.5341,0 599.5341,-36"/>
<text text-anchor="middle" x="514.962" y="-13.8" font-family="sans-serif" font-size="14.00" fill="#000000">aws_route_table.rtb_Public</text>
</g>
<!-- aws_route_table.rtb_Public&#45;&gt;aws_internet_gateway.igw01 -->
<g id="edge4" class="edge">
<title>aws_route_table.rtb_Public-&gt;aws_internet_gateway.igw01</title>
<path fill="none" stroke="#000000" d="M430.1849,-19.4799C398.2666,-20.037 361.6739,-20.6758 328.4979,-21.2549"/>
<polygon fill="#000000" stroke="#000000" points="328.2579,-17.7585 318.3205,-21.4326 328.3801,-24.7574 328.2579,-17.7585"/>
</g>
<!-- aws_route_table_association.public_subnet_association -->
<g id="node4" class="node">
<title>aws_route_table_association.public_subnet_association</title>
<polygon fill="none" stroke="#000000" points="1039.8593,-59 711.4647,-59 711.4647,-23 1039.8593,-23 1039.8593,-59"/>
<text text-anchor="middle" x="875.662" y="-36.8" font-family="sans-serif" font-size="14.00" fill="#000000">aws_route_table_association.public_subnet_association</text>
</g>
<!-- aws_route_table_association.public_subnet_association&#45;&gt;aws_route_table.rtb_Public -->
<g id="edge5" class="edge">
<title>aws_route_table_association.public_subnet_association-&gt;aws_route_table.rtb_Public</title>
<path fill="none" stroke="#000000" d="M711.4082,-30.5264C676.6583,-28.3105 641.105,-26.0435 609.9641,-24.0578"/>
<polygon fill="#000000" stroke="#000000" points="609.7824,-20.5392 599.58,-23.3957 609.3369,-27.525 609.7824,-20.5392"/>
</g>
<!-- aws_route_table_association.public_subnet_association&#45;&gt;aws_subnet.public_subnet01 -->
<g id="edge6" class="edge">
<title>aws_route_table_association.public_subnet_association-&gt;aws_subnet.public_subnet01</title>
<path fill="none" stroke="#000000" d="M711.5261,-52.4136C590.308,-60.8428 429.2905,-72.0395 327.2594,-79.1345"/>
<polygon fill="#000000" stroke="#000000" points="326.9996,-75.644 317.2665,-79.8293 327.4852,-82.6271 326.9996,-75.644"/>
</g>
<!-- aws_security_group.internet&#45;&gt;aws_vpc.vpc01 -->
<g id="edge7" class="edge">
<title>aws_security_group.internet-&gt;aws_vpc.vpc01</title>
<path fill="none" stroke="#000000" d="M184.7304,-140.9551C160.5595,-130.9964 130.3515,-118.5504 104.7984,-108.0223"/>
<polygon fill="#000000" stroke="#000000" points="105.8344,-104.6638 95.2551,-104.0904 103.1678,-111.136 105.8344,-104.6638"/>
</g>
<!-- aws_subnet.public_subnet01&#45;&gt;aws_vpc.vpc01 -->
<g id="edge8" class="edge">
<title>aws_subnet.public_subnet01-&gt;aws_vpc.vpc01</title>
<path fill="none" stroke="#000000" d="M139.6781,-86C130.7158,-86 121.7571,-86 113.1688,-86"/>
<polygon fill="#000000" stroke="#000000" points="112.9013,-82.5001 102.9013,-86 112.9013,-89.5001 112.9013,-82.5001"/>
</g>
<!-- aws_vpc_security_group_egress_rule.AllowAll -->
<g id="node8" class="node">
<title>aws_vpc_security_group_egress_rule.AllowAll</title>
<polygon fill="none" stroke="#000000" points="656.5456,-236 373.3784,-236 373.3784,-200 656.5456,-200 656.5456,-236"/>
<text text-anchor="middle" x="514.962" y="-213.8" font-family="sans-serif" font-size="14.00" fill="#000000">aws_vpc_security_group_egress_rule.AllowAll</text>
</g>
<!-- aws_vpc_security_group_egress_rule.AllowAll&#45;&gt;aws_security_group.internet -->
<g id="edge9" class="edge">
<title>aws_vpc_security_group_egress_rule.AllowAll-&gt;aws_security_group.internet</title>
<path fill="none" stroke="#000000" d="M400.688,-199.9805C385.0825,-197.172 369.2998,-194.1497 354.3606,-191 338.3783,-187.6303 321.3622,-183.6045 305.178,-179.5639"/>
<polygon fill="#000000" stroke="#000000" points="305.7777,-176.1055 295.2252,-177.0519 304.0646,-182.8927 305.7777,-176.1055"/>
</g>
<!-- aws_vpc_security_group_ingress_rule.AllowICMPV4 -->
<g id="node9" class="node">
<title>aws_vpc_security_group_ingress_rule.AllowICMPV4</title>
<polygon fill="none" stroke="#000000" points="675.6649,-182 354.2591,-182 354.2591,-146 675.6649,-146 675.6649,-182"/>
<text text-anchor="middle" x="514.962" y="-159.8" font-family="sans-serif" font-size="14.00" fill="#000000">aws_vpc_security_group_ingress_rule.AllowICMPV4</text>
</g>
<!-- aws_vpc_security_group_ingress_rule.AllowICMPV4&#45;&gt;aws_security_group.internet -->
<g id="edge10" class="edge">
<title>aws_vpc_security_group_ingress_rule.AllowICMPV4-&gt;aws_security_group.internet</title>
<path fill="none" stroke="#000000" d="M354.162,-161.1931C344.7113,-161.0281 335.3643,-160.8649 326.289,-160.7065"/>
<polygon fill="#000000" stroke="#000000" points="326.2267,-157.205 316.1671,-160.5298 326.1045,-164.2039 326.2267,-157.205"/>
</g>
</g>
</svg>